<?xml version="1.0" standalone="no"?>
<!DOCTYPE svg PUBLIC "-//W3C//DTD SVG 20010904//EN"
 "http://www.w3.org/TR/2001/REC-SVG-20010904/DTD/svg10.dtd">
<svg version="1.0" xmlns="http://www.w3.org/2000/svg"
 width="181.000000pt" height="64.000000pt" viewBox="0 0 181.000000 64.000000"
 preserveAspectRatio="xMidYMid meet">

<g transform="translate(0.000000,64.000000) scale(0.100000,-0.100000)"
fill="#db0000" stroke="none">
<path d="M133 516 l-28 -24 0 -149 c0 -181 9 -203 78 -203 60 0 95 37 104 108
l6 52 -30 0 c-28 0 -31 -3 -36 -41 -6 -47 -19 -64 -41 -56 -13 5 -16 28 -16
142 l0 135 25 0 c20 0 25 -6 31 -35 5 -31 10 -35 36 -35 30 0 30 0 24 42 -4
24 -17 53 -28 65 -30 32 -88 31 -125 -1z"/>
<path d="M360 524 c0 -4 -11 -74 -25 -158 -14 -83 -27 -161 -29 -173 -3 -19 1
-23 25 -23 24 0 29 5 35 35 6 32 9 35 39 35 29 0 34 -4 40 -30 5 -25 11 -30
36 -30 16 0 29 5 29 13 0 6 -12 85 -27 175 l-28 162 -47 0 c-27 0 -48 -3 -48
-6z m65 -186 c6 -47 6 -48 -21 -48 -24 0 -26 3 -21 29 3 15 9 52 13 82 8 53 8
53 15 19 4 -19 10 -56 14 -82z"/>
<path d="M540 360 l0 -170 25 0 25 0 1 108 1 107 21 -108 20 -108 31 3 31 3
16 100 16 100 2 -97 1 -98 30 0 30 0 0 165 0 165 -44 0 -43 0 -19 -112 -18
-113 -17 90 c-10 50 -18 100 -18 113 -1 19 -6 22 -46 22 l-45 0 0 -170z"/>
<path d="M830 365 l0 -165 30 0 c29 0 29 1 32 62 l3 63 39 6 c54 9 76 38 76
101 0 39 -5 54 -25 73 -21 22 -33 25 -90 25 l-65 0 0 -165z m116 90 c11 -42
-3 -75 -31 -75 -23 0 -25 3 -25 50 0 47 2 50 25 50 18 0 26 -7 31 -25z"/>
<path d="M1030 366 l0 -164 30 -4 c17 -3 32 -2 35 0 3 3 5 34 5 69 l0 63 35 0
c31 0 35 3 35 25 0 22 -4 25 -35 25 l-35 0 0 49 0 50 48 3 c40 3 47 6 50 26 3
21 1 22 -82 22 l-86 0 0 -164z"/>
<path d="M1220 361 l0 -168 46 -7 c26 -3 62 -6 80 -6 29 0 34 3 34 24 0 27
-16 36 -66 36 l-34 0 0 145 0 145 -30 0 -30 0 0 -169z"/>
<path d="M1402 353 l3 -178 33 -3 32 -3 0 180 0 181 -35 0 -35 0 2 -177z"/>
<path d="M1500 523 c0 -4 13 -44 29 -88 l29 -80 -33 -93 c-27 -74 -31 -94 -20
-98 33 -13 49 2 70 65 12 36 24 61 27 55 3 -5 13 -36 23 -69 9 -33 22 -63 28
-67 20 -13 60 -9 55 5 -3 6 -18 54 -33 106 l-29 93 32 90 32 89 -32 -3 c-29
-3 -33 -8 -51 -61 -10 -32 -21 -56 -23 -54 -2 2 -12 28 -22 58 -17 49 -22 54
-50 57 -18 2 -32 0 -32 -5z"/>
</g>
</svg>
